<mxfile host="app.diagrams.net" modified="2023-11-02T05:58:01.257Z" agent="Mozilla/5.0 (Macintosh; Intel Mac OS X 10_15_7) AppleWebKit/605.1.15 (KHTML, like Gecko) Version/17.0 Safari/605.1.15" etag="5yIQP9MxrtkP4XvlbwDF" version="22.0.8" type="device">
  <diagram name="Page-1" id="PDRbo8G551DcDDLgO-Ke">
    <mxGraphModel dx="1015" dy="566" grid="1" gridSize="10" guides="1" tooltips="1" connect="1" arrows="1" fold="1" page="1" pageScale="1" pageWidth="827" pageHeight="1169" math="0" shadow="0">
      <root>
        <mxCell id="0" />
        <mxCell id="1" parent="0" />
        <mxCell id="y4QC48UfjLQTSa2GZvf6-1" value="&lt;font style=&quot;font-size: 20px;&quot;&gt;И А&lt;br&gt;&lt;/font&gt;" style="ellipse;whiteSpace=wrap;html=1;aspect=fixed;" vertex="1" parent="1">
          <mxGeometry x="374" y="290" width="80" height="80" as="geometry" />
        </mxCell>
        <mxCell id="y4QC48UfjLQTSa2GZvf6-3" value="" style="rounded=0;whiteSpace=wrap;html=1;" vertex="1" parent="1">
          <mxGeometry x="560" y="442" width="20" height="100" as="geometry" />
        </mxCell>
        <mxCell id="y4QC48UfjLQTSa2GZvf6-4" value="" style="rounded=0;whiteSpace=wrap;html=1;" vertex="1" parent="1">
          <mxGeometry x="580" y="442" width="20" height="100" as="geometry" />
        </mxCell>
        <mxCell id="y4QC48UfjLQTSa2GZvf6-5" value="" style="rounded=0;whiteSpace=wrap;html=1;" vertex="1" parent="1">
          <mxGeometry x="600" y="442" width="20" height="100" as="geometry" />
        </mxCell>
        <mxCell id="y4QC48UfjLQTSa2GZvf6-6" value="" style="rounded=0;whiteSpace=wrap;html=1;" vertex="1" parent="1">
          <mxGeometry x="620" y="442" width="20" height="100" as="geometry" />
        </mxCell>
        <mxCell id="y4QC48UfjLQTSa2GZvf6-18" value="&lt;font style=&quot;font-size: 16px;&quot;&gt;Н1&lt;/font&gt;" style="text;html=1;align=center;verticalAlign=middle;resizable=0;points=[];autosize=1;strokeColor=none;fillColor=none;" vertex="1" parent="1">
          <mxGeometry x="610" y="412" width="40" height="30" as="geometry" />
        </mxCell>
        <mxCell id="y4QC48UfjLQTSa2GZvf6-20" value="" style="endArrow=classic;html=1;rounded=0;exitX=1;exitY=0.5;exitDx=0;exitDy=0;" edge="1" parent="1">
          <mxGeometry width="50" height="50" relative="1" as="geometry">
            <mxPoint x="640" y="490" as="sourcePoint" />
            <mxPoint x="740" y="490" as="targetPoint" />
          </mxGeometry>
        </mxCell>
        <mxCell id="y4QC48UfjLQTSa2GZvf6-23" value="" style="endArrow=classic;html=1;rounded=0;exitX=1;exitY=0.5;exitDx=0;exitDy=0;" edge="1" parent="1">
          <mxGeometry width="50" height="50" relative="1" as="geometry">
            <mxPoint x="454" y="340.25" as="sourcePoint" />
            <mxPoint x="560" y="490" as="targetPoint" />
          </mxGeometry>
        </mxCell>
        <mxCell id="y4QC48UfjLQTSa2GZvf6-25" value="" style="endArrow=classic;html=1;rounded=0;entryX=0;entryY=0.75;entryDx=0;entryDy=0;" edge="1" parent="1" target="y4QC48UfjLQTSa2GZvf6-35">
          <mxGeometry width="50" height="50" relative="1" as="geometry">
            <mxPoint x="740" y="490" as="sourcePoint" />
            <mxPoint x="760" y="580" as="targetPoint" />
          </mxGeometry>
        </mxCell>
        <mxCell id="y4QC48UfjLQTSa2GZvf6-26" value="&lt;font style=&quot;font-size: 20px;&quot;&gt;И B&lt;br&gt;&lt;/font&gt;" style="ellipse;whiteSpace=wrap;html=1;aspect=fixed;" vertex="1" parent="1">
          <mxGeometry x="360" y="450" width="80" height="80" as="geometry" />
        </mxCell>
        <mxCell id="y4QC48UfjLQTSa2GZvf6-27" value="&lt;font style=&quot;font-size: 20px;&quot;&gt;И C&lt;br&gt;&lt;/font&gt;" style="ellipse;whiteSpace=wrap;html=1;aspect=fixed;" vertex="1" parent="1">
          <mxGeometry x="374" y="600" width="80" height="80" as="geometry" />
        </mxCell>
        <mxCell id="y4QC48UfjLQTSa2GZvf6-30" value="" style="endArrow=classic;html=1;rounded=0;entryX=0;entryY=0.25;entryDx=0;entryDy=0;" edge="1" parent="1" target="y4QC48UfjLQTSa2GZvf6-35">
          <mxGeometry width="50" height="50" relative="1" as="geometry">
            <mxPoint x="740" y="490" as="sourcePoint" />
            <mxPoint x="760" y="410" as="targetPoint" />
          </mxGeometry>
        </mxCell>
        <mxCell id="y4QC48UfjLQTSa2GZvf6-31" value="&lt;font style=&quot;font-size: 16px;&quot;&gt;= C&lt;/font&gt;" style="edgeLabel;html=1;align=center;verticalAlign=middle;resizable=0;points=[];" vertex="1" connectable="0" parent="y4QC48UfjLQTSa2GZvf6-30">
          <mxGeometry x="-0.0437" y="2" relative="1" as="geometry">
            <mxPoint x="-8" y="-9" as="offset" />
          </mxGeometry>
        </mxCell>
        <mxCell id="y4QC48UfjLQTSa2GZvf6-32" value="&lt;font style=&quot;font-size: 16px;&quot;&gt;= A + B&lt;/font&gt;" style="text;html=1;align=center;verticalAlign=middle;resizable=0;points=[];autosize=1;strokeColor=none;fillColor=none;" vertex="1" parent="1">
          <mxGeometry x="710" y="512" width="80" height="30" as="geometry" />
        </mxCell>
        <mxCell id="y4QC48UfjLQTSa2GZvf6-33" value="" style="endArrow=classic;html=1;rounded=0;" edge="1" parent="1">
          <mxGeometry width="50" height="50" relative="1" as="geometry">
            <mxPoint x="450" y="620" as="sourcePoint" />
            <mxPoint x="560" y="490" as="targetPoint" />
          </mxGeometry>
        </mxCell>
        <mxCell id="y4QC48UfjLQTSa2GZvf6-34" value="" style="endArrow=classic;html=1;rounded=0;exitX=1;exitY=0.5;exitDx=0;exitDy=0;" edge="1" parent="1" source="y4QC48UfjLQTSa2GZvf6-26">
          <mxGeometry width="50" height="50" relative="1" as="geometry">
            <mxPoint x="640" y="560" as="sourcePoint" />
            <mxPoint x="560" y="490" as="targetPoint" />
          </mxGeometry>
        </mxCell>
        <mxCell id="y4QC48UfjLQTSa2GZvf6-35" value="" style="triangle;whiteSpace=wrap;html=1;" vertex="1" parent="1">
          <mxGeometry x="790" y="431" width="140" height="122" as="geometry" />
        </mxCell>
        <mxCell id="y4QC48UfjLQTSa2GZvf6-36" value="" style="endArrow=classic;html=1;rounded=0;" edge="1" parent="1">
          <mxGeometry width="50" height="50" relative="1" as="geometry">
            <mxPoint x="928" y="492" as="sourcePoint" />
            <mxPoint x="1000" y="492" as="targetPoint" />
          </mxGeometry>
        </mxCell>
        <mxCell id="y4QC48UfjLQTSa2GZvf6-37" value="&lt;font style=&quot;font-size: 20px;&quot;&gt;K&lt;br&gt;&lt;/font&gt;" style="ellipse;whiteSpace=wrap;html=1;aspect=fixed;" vertex="1" parent="1">
          <mxGeometry x="1000" y="452" width="80" height="80" as="geometry" />
        </mxCell>
      </root>
    </mxGraphModel>
  </diagram>
</mxfile>
